<?xml version="1.0"?>
<svg xmlns="http://www.w3.org/2000/svg" xmlns:xlink="http://www.w3.org/1999/xlink" version="1.1" id="Capa_1" x="0px" y="0px" viewBox="0 0 512 512" style="enable-background:new 0 0 512 512;" xml:space="preserve" width="512px" height="512px" class=""><g><path style="fill:#3C474D;" d="M354.669,164.055c-65.326,0-50.228-29.743-98.669-29.743s-33.343,29.743-98.669,29.743  l30.649,112.049h136.038L354.669,164.055z" data-original="#3C474D" class=""/><circle style="fill:#465059;" cx="111.682" cy="266.007" r="111.682" data-original="#465059" class=""/><circle style="fill:#3DAEA3" cx="111.682" cy="266.007" r="76.295" data-original="#3AC7B4" class="" data-old_color="#3AC7B4"/><path style="fill:#379D93" d="M132.289,321.704c-42.137,0-76.296-34.159-76.296-76.296c0-15.802,4.805-30.483,13.032-42.661  c-20.294,13.712-33.635,36.93-33.635,63.264c0,42.137,34.159,76.296,76.296,76.296c26.335,0,49.553-13.342,63.264-33.635  C162.772,316.9,148.091,321.704,132.289,321.704z" data-original="#00AD94" class="" data-old_color="#00AD94"/><circle style="fill:#465059;" cx="400.318" cy="266.007" r="111.682" data-original="#465059" class=""/><circle style="fill:#3DAEA3" cx="400.318" cy="266.007" r="76.295" data-original="#3AC7B4" class="" data-old_color="#3AC7B4"/><path style="fill:#379D93" d="M420.919,321.704c-42.137,0-76.296-34.159-76.296-76.296c0-15.802,4.805-30.483,13.032-42.661  c-20.294,13.712-33.635,36.93-33.635,63.264c0,42.137,34.159,76.296,76.296,76.296c26.335,0,49.553-13.342,63.264-33.635  C451.402,316.9,436.722,321.704,420.919,321.704z" data-original="#00AD94" class="" data-old_color="#00AD94"/><circle style="fill:#6DC0D5" cx="256" cy="186.199" r="16.315" data-original="#DA5B65" class="active-path" data-old_color="#DA5B65"/></g> </svg>
